<svg xmlns="http://www.w3.org/2000/svg" width="25.016" height="25.016" viewBox="0 0 25.016 25.016"><defs><style>.a{fill:none;stroke:#707071;stroke-miterlimit:10;stroke-width:0.8px;}</style></defs><g transform="translate(-0.1 -0.1)"><g transform="translate(0.5 0.5)"><circle class="a" cx="12.108" cy="12.108" r="12.108" transform="translate(0 0)"/><path class="a" d="M121.683,74.16l-5.705,4.66a1,1,0,0,1-1.394-.46h0a1.141,1.141,0,0,1,.431-1.49Z" transform="translate(-103.973 -65.111)"/><rect class="a" width="1.37" height="2.41" rx="0.685" transform="translate(11.622 1.944)"/><rect class="a" width="1.376" height="2.42" rx="0.688" transform="translate(6.579 3.648) rotate(-38.125)"/><rect class="a" width="1.37" height="2.41" rx="0.685" transform="translate(3.153 7.393) rotate(-56.95)"/><rect class="a" width="1.37" height="2.41" rx="0.685" transform="matrix(-0.548, -0.836, 0.836, -0.548, 3.766, 17.607)"/><rect class="a" width="1.37" height="2.41" rx="0.685" transform="translate(19.858 12.716) rotate(-86.35)"/><rect class="a" width="1.37" height="2.41" rx="0.685" transform="translate(18.523 16.388) rotate(-53.16)"/><rect class="a" width="1.37" height="2.41" rx="0.685" transform="translate(2.073 12.519) rotate(-90)"/><rect class="a" width="1.37" height="2.41" rx="0.685" transform="translate(16.908 2.899) rotate(30)"/></g></g></svg>